<svg xmlns="http://www.w3.org/2000/svg" width="256" height="256" viewBox="0 0 100 100"><rect width="100" height="100" rx="20" fill="#141474"></rect><path d="M18.64 74.48L18.64 74.48Q16.08 74.48 14.60 72.96Q13.12 71.44 13.12 68.88L13.12 68.88L13.12 25.76Q13.76 25.60 15.16 25.36Q16.56 25.12 17.92 25.12L17.92 25.12Q20.80 25.12 22.16 26.16Q23.52 27.20 23.52 30.00L23.52 30.00L23.52 65.92L44.08 65.92Q44.48 66.56 44.88 67.64Q45.28 68.72 45.28 70L45.28 70Q45.28 72.16 44.28 73.32Q43.28 74.48 41.52 74.48L41.52 74.48L18.64 74.48ZM59.20 25.76L85.76 25.76Q86.16 26.40 86.52 27.48Q86.88 28.56 86.88 29.84L86.88 29.84Q86.88 32.00 85.88 33.12Q84.88 34.24 83.20 34.24L83.20 34.24L63.92 34.24L63.92 46.96L83.04 46.96Q83.44 47.60 83.80 48.64Q84.16 49.68 84.16 50.96L84.16 50.96Q84.16 53.12 83.16 54.20Q82.16 55.28 80.48 55.28L80.48 55.28L64.08 55.28L64.08 74.24Q63.36 74.40 62.04 74.64Q60.72 74.88 59.28 74.88L59.28 74.88Q56.24 74.88 54.96 73.76Q53.68 72.64 53.68 70L53.68 70L53.68 31.28Q53.68 28.72 55.16 27.24Q56.64 25.76 59.20 25.76L59.20 25.76Z" fill="#ffffff"></path></svg>