<svg width="2000" height="1333" xmlns="http://www.w3.org/2000/svg"><defs><linearGradient id="a" gradientTransform="rotate(90)"><stop offset="5%" stop-color="#2f1bfd"/><stop offset="95%" stop-color="#6354fd"/></linearGradient><linearGradient id="b" gradientTransform="rotate(90)"><stop offset="5%" stop-color="#4133fb"/><stop offset="95%" stop-color="#7066fc"/></linearGradient><linearGradient id="c" gradientTransform="rotate(90)"><stop offset="5%" stop-color="#524af8"/><stop offset="95%" stop-color="#7d77f9"/></linearGradient><linearGradient id="d" gradientTransform="rotate(90)"><stop offset="5%" stop-color="#6462f6"/><stop offset="95%" stop-color="#8a89f8"/></linearGradient><linearGradient id="e" gradientTransform="rotate(90)"><stop offset="5%" stop-color="#767af4"/><stop offset="95%" stop-color="#989bf6"/></linearGradient><linearGradient id="f" gradientTransform="rotate(90)"><stop offset="5%" stop-color="#898ff4"/><stop offset="95%" stop-color="#a6abf6"/></linearGradient><linearGradient id="g" gradientTransform="rotate(90)"><stop offset="5%" stop-color="#9ea2f6"/><stop offset="95%" stop-color="#b6b9f8"/></linearGradient><linearGradient id="h" gradientTransform="rotate(90)"><stop offset="5%" stop-color="#b2b5f8"/><stop offset="95%" stop-color="#c5c7f9"/></linearGradient><linearGradient id="i" gradientTransform="rotate(90)"><stop offset="5%" stop-color="#c6c8fb"/><stop offset="95%" stop-color="#d4d5fc"/></linearGradient><linearGradient id="j" gradientTransform="rotate(90)"><stop offset="5%" stop-color="#dbdafd"/><stop offset="95%" stop-color="#e4e3fd"/></linearGradient><linearGradient id="k" gradientTransform="rotate(90)"><stop offset="5%" stop-color="#efedff"/><stop offset="95%" stop-color="#f3f1ff"/></linearGradient></defs><path fill="#1d03ff" d="M0 0h2000v1333H0z"/><path d="M0 111c65.414 8.062 130.828 16.124 210 17 79.172.876 172.101-5.433 255-3s155.768 13.608 216 8c60.232-5.608 107.828-27.999 176-27 68.172.999 156.922 25.388 247 22 90.078-3.388 181.485-34.551 257-30 75.515 4.551 135.138 44.818 196 40 60.862-4.818 122.963-54.72 207-58 84.037-3.28 190.01 40.063 233 53 42.99 12.937 22.995-4.531 43-22l-40 1222H0Z" fill="url(#a)"/><path d="M0 222c73.498 15.353 146.996 30.705 221 26 74.004-4.705 148.515-29.468 215-41 66.485-11.532 124.942-9.831 207-10 82.058-.169 187.715-2.206 260-2 72.285.206 111.2 2.656 180 11s167.488 22.584 249 32 145.849 14.008 206 10c60.151-4.008 116.118-16.618 210-29 93.882-12.382 225.68-24.538 274-24 48.32.538 13.16 13.769 18 27l-40 1111H0Z" fill="url(#b)"/><path d="M0 333c93.9 16.695 187.8 33.39 254 33 66.2-.39 104.702-17.865 170-19 65.298-1.135 157.392 14.07 250 11 92.608-3.07 185.73-24.417 247-30 61.27-5.583 90.687 4.598 160 10s178.52 6.025 254 3c75.48-3.025 117.232-9.697 192-17 74.768-7.303 182.553-15.235 273-19 90.447-3.765 163.556-3.361 194 2 30.444 5.361 18.222 15.68 46 26l-40 1000H0Z" fill="url(#c)"/><path d="M0 444c68.974-12.798 137.948-25.597 213-21 75.052 4.597 156.181 26.588 224 25 67.819-1.588 122.327-26.757 205-20 82.673 6.757 193.51 45.44 269 47 75.49 1.56 115.63-34 177-46 61.37-12 143.97-.44 232 8s181.493 13.757 259 17c77.507 3.243 139.06 4.412 223 8s190.269 9.597 227 7c36.731-2.597 3.866-13.798 11-25l-40 889H0Z" fill="url(#d)"/><path d="M0 555c67.04-9.758 134.079-19.515 211-15 76.921 4.515 163.724 23.303 231 36 67.276 12.697 115.025 19.304 194 9 78.975-10.304 189.177-37.52 268-52 78.823-14.48 126.266-16.225 194-3 67.734 13.225 155.757 41.42 231 41 75.243-.42 137.704-29.453 204-28 66.296 1.453 136.426 33.391 220 39 83.574 5.609 180.593-15.112 224-24 43.407-8.888 33.204-5.944 63-3l-40 778H0Z" fill="url(#e)"/><path d="M0 666c64.19-14.013 128.381-28.026 203-29 74.619-.974 159.665 11.09 249 20 89.335 8.91 182.957 14.667 247 10s98.505-19.759 161-26c62.495-6.241 153.022-3.632 240 9 86.978 12.632 170.406 35.285 246 43 75.594 7.715 143.355.49 204-5 60.645-5.49 114.174-9.247 198-13s197.95-7.5 245-9c47.05-1.5 27.025-.75 47 0l-40 667H0Z" fill="url(#f)"/><path d="M0 777c89.663-3.288 179.327-6.576 242-10 62.673-3.424 98.357-6.983 170-8 71.643-1.017 179.246.51 260 0 80.754-.51 134.659-3.054 200-2 65.341 1.054 142.118 5.708 228 4 85.882-1.708 180.869-9.778 251-14 70.131-4.222 115.406-4.596 191 0s181.506 14.16 265 15c83.494.84 144.57-7.046 173-6 28.43 1.046 24.215 11.023 60 21l-40 556H0Z" fill="url(#g)"/><path d="M0 888c72.006 12.612 144.011 25.224 225 21s170.961-25.282 237-37c66.039-11.718 108.145-14.094 172-11 63.855 3.094 149.46 11.659 242 21 92.54 9.341 192.013 19.46 261 13 68.987-6.46 107.488-29.496 166-26 58.512 3.496 137.034 33.525 219 41 81.966 7.475 167.375-7.603 251-12s165.464 1.887 203 2c37.536.113 30.768-5.943 64-12l-40 445H0Z" fill="url(#h)"/><path d="M0 999c76.389-1.203 152.778-2.407 233-7 80.222-4.593 164.277-12.577 237-14 72.723-1.423 134.115 3.714 198 6 63.885 2.286 130.262 1.721 200 0s142.836-4.598 223-6c80.164-1.402 167.395-1.329 249 4 81.605 5.329 157.585 15.913 223 23 65.415 7.087 120.266 10.677 200 16s184.353 12.378 228 9c43.647-3.378 26.324-17.189 49-31l-40 334H0Z" fill="url(#i)"/><path d="M0 1110c90.727-4.947 181.455-9.895 253-4 71.545 5.895 123.908 22.631 189 19 65.092-3.631 142.912-27.631 225-21s168.443 43.893 236 39c67.557-4.893 116.314-51.943 187-58 70.686-6.057 163.3 28.877 238 40 74.7 11.123 131.487-1.565 196-9 64.513-7.435 136.754-9.617 225-16 88.246-6.383 192.499-16.967 237-16 44.501.967 29.25 13.483 54 26l-40 223H0Z" fill="url(#j)"/><path d="M0 1221c73.807-18.686 147.615-37.372 215-30 67.385 7.372 128.348 40.803 203 39 74.652-1.803 162.992-38.84 250-37 87.008 1.84 172.683 42.554 239 53 66.317 10.446 113.276-9.378 187-17s174.213-3.042 255-1 141.87 1.547 202-9c60.13-10.547 119.304-31.147 200-26 80.696 5.147 182.913 36.042 228 45 45.087 8.958 33.043-4.021 61-17l-40 112H0Z" fill="url(#k)"/></svg>